<svg xmlns="http://www.w3.org/2000/svg" viewBox="0 0 841.89 595.28"><defs><style>.cls-1{fill:#00dc76;}.cls-2{fill:#5f0bdd;}.cls-3{fill:#1e0249;}.cls-4{fill:#29025d;}.cls-5{fill:#3a0b84;}.cls-6{fill:#330777;}.cls-7{fill:#fff;}</style></defs><title>onboarding screen 3</title><g id="Layer_6" data-name="Layer 6"><path class="cls-1" d="M198.58,292.68c-2.13,0-3.86,2.52-3.86,5.62s1.73,5.61,3.86,5.61,3.86-2.52,3.86-5.61S200.71,292.68,198.58,292.68Zm0,10.91c-2,0-3.54-2.38-3.54-5.29s1.59-5.29,3.54-5.29,3.54,2.37,3.54,5.29S200.53,303.59,198.58,303.59Z"/><path class="cls-1" d="M299.66,260.35,271.5,242.82l-3.66,5.7s19.82,39.32,31.82,32.74Z"/><path class="cls-2" d="M309.66,404.93l-22.41,4.19c-1.05,2.93-.42,16.12-.42,16.12L284,450.94l-.52,4.67-3.35,59.68c-3.14,12.35-19.23,20.8-19.23,20.8h27.37l2.12-16.19c-1.46-7.54.84-16.76.84-16.76,3.77-10.26,13-47.53,13-47.53V427.75A48.61,48.61,0,0,1,309.66,404.93Z"/><path class="cls-2" d="M335.21,402.41s7.33,17.6,12.77,23c0,0,11.31,43.35,23.46,80.21l1.6,30.43H394.7S383.16,523.46,382.12,518c0,0-3.77-50.05-9-65.75,0,0-5.44-25.76-8.17-31.84l-4.18-18Z"/><polygon class="cls-3" points="241.88 216.46 275.39 206.48 291.95 262.41 261.43 265.53 241.88 216.46"/><path class="cls-3" d="M193.41,389,184,478.77s-9.83,35.84-9.56,43.81c0,0,1.58,7.28-8.23,13.51h23.88l-1.58-13.51s15.14-42,16.73-50.45l15.4-53.9,12.48,69s2.39,30.8,6.1,33.72l-9.82,14.61,18,.5-.5-22.27L246,431.77l1.42-28.14L242,385.84A151,151,0,0,1,193.41,389Z"/><path class="cls-1" d="M191.09,321.2l13.65-15.54,2.13,2.92s6.68,2,9.55-5.58v-3.92l25.39,13.3L252,370.27s16.22,29.67,5.13,35.53c-4,2.13-14.49,5.13-18,2.3S237,389,237,389s-29.56,6.37-43.54,0l-.53-5.49-20.71-6.37a15.29,15.29,0,0,1-1.95-13.28l4.07-8.14s5-3.45,6.54-2.27l5.48,3.06Z"/><path class="cls-2" d="M252.35,419.83l-2.17-.41a68,68,0,0,1,.58-10.16l.57-1.26a54.73,54.73,0,0,1-6.7,1.26L242,431.49l2.21.28H249l-.6-2.12,1.72.47v-2.53l1.4.47,1.4-6.29Zm-2.17-.4.1.94C250.24,420.08,250.2,419.77,250.18,419.43Zm.58,2.34a2.81,2.81,0,0,1-.48-1.39l1,.77Z"/><path class="cls-2" d="M552.31,224.48V210.8s-5.58-11.45,4.47-17.31c0,0,8.78-7,15.76-5.29,0,0,6.14.42,7.22,5.65,0,0,2.12,5.5-1.63,13.6,0,0-1,11.78-.49,14.57l-3,10-13.12,2.51-.28,20.94-5.31,9.78-5.17-24.58L542.26,237Z"/><polygon class="cls-4" points="586.1 466.84 569.49 374.62 569.49 374.62 586.1 466.84"/><polygon class="cls-4" points="587.22 525.2 588.61 524.36 588.61 524.36 587.22 525.2"/><polygon class="cls-4" points="584.42 526.87 584.42 526.87 566.27 488.62 584.42 526.87"/><path class="cls-3" d="M588.61,524.36h0l-1.39.84-2.8,1.67h0l-18.15-38.25-18.14-38.25h0l.63-117.84h0l13-.55,2.7,15c2.88,3.45,12.09,17,19.08,21l7.54,5.3s-8.94-1.39-11.17-3.91L584.7,380l.28,7.82-4.74-6.7-4.19.56-6.56-7.06h0l16.61,92.22,16.19,53.05,12,7.82h15.64v2.51l-21.22,2.85-10.06,1.81-9.1,1.37Z"/><path class="cls-3" d="M580.36,198.09s-9.7-6.37-18.14-3.49c0,0-2.91,13,0,21.08,0,0,12.91-4.23,14.68.58l1.5,8.06s.81,6.18-1.65,7.75c0,0-7.56,4-12.76,3.12,0,0-8-1.14-9.5-16.72l-2.18-7.67s-4.93-13.6,2.19-19.88c0,0,8.48-8.27,22.93-1.67C577.43,189.25,582.66,193.54,580.36,198.09Z"/><path class="cls-2" d="M337.16,176.56l3.52,22.08c2,3.71,6.86,4.26,6.86,4.26-10.94,1.48-30.05,23.93-30.05,23.93C311.75,222,307.1,202,307.1,202l6.08-.45,6.32-.47h0c.18,0,2.45-.1,3.73-4.75,2-5.34,2.87-13.26,2.87-13.26h-8.33c-7.49-11.13-3.63-20.22-3.63-20.22l-.75-4.45c-1.48-14.09,8.91-16.87,8.91-16.87,31.16-10.77,25.22,20.58,25.22,20.58C346.24,170.62,337.16,176.56,337.16,176.56Z"/><path class="cls-1" d="M358.66,238.08s-.13.64-.37,1.74l-17.57,35.82,2.06,7.3-42.46.73L295,264.35s-.23-1.33-.52-4l-2.56-23.69,1.68-6.43c.13-5,.4-10.52.85-16.61C295.36,201.18,307.1,202,307.1,202c4.47.14,10.39,24.86,10.39,24.86C331.58,204.45,346,202.55,346,202.55a25.51,25.51,0,0,1,10.45,2.2h0l.08,0a17.53,17.53,0,0,1,1.61.87,15.69,15.69,0,0,1,3.61,3l-.24-.15,0,0C361.89,209.08,365.39,214.77,358.66,238.08Z"/><path class="cls-1" d="M546.2,232.47l-11-1.58v5.16l3.56,2.94-13.88-1.47s-13.87,2.82-11.17,17.19l5.53,48.51-2.71,20.51L523,333.3l39.37-1.68,6.26-6.05-3.44-6.51L567,304.45,577,264.89s3.56-15.83-5.89-15l1.72-6.51s-9.7-3.56-11.24-3.43l.24,15.13-9.26-12.31-1-6.51Z"/><circle class="cls-4" cx="344.97" cy="146.11" r="8.31"/><path class="cls-2" d="M162.15,346.78,161.5,340h-11l.56,5.95L170,365s4-7.13,5.9-10.2h0Z"/><polygon class="cls-3" points="138.93 325.95 153.42 324.86 169.54 344.18 161.94 344.54 161.5 340 150.54 340 138.93 325.95"/><polyline class="cls-3" points="599.96 263.82 615.62 242.09 626.59 245.02 609.88 264.92 599.96 263.82 599.96 263.82"/><path class="cls-3" d="M417.23,281.93l-23.75,18.41,19,41-3.27,4.45,4.75,11-10.09,43.35h7.72l-4.63,136h18.73s-11.13-8.78-8.46-15.17c1.48-3.57,19.16-17.35,12.47-25.83-4.46-5.64-5.35-7.72-5.35-7.72s19.3-33.25,18.71-48.39c0,0,3.26,28.2,4.45,32.36,0,0-2.67,19.3,6.83,28.5l1.89,36.25h19.19L466.51,493s6.83-52.55,3.27-78.37l-4.16-15.15s8-.89,9.8-5.64l-14.55-54s15.44,14,19.59,13.66c0,0,14.93-3.86,9.25-16.33l-4.5-15.73-.59-7.13-9.5-4.16v7.13l-4.45-10.09-6.54-1.79.3-15.43-22.19-8Z"/><polygon class="cls-4" points="417.23 281.93 417.23 275.4 420.49 275.63 442.24 277.18 442.24 281.93 417.23 281.93"/><polygon class="cls-4" points="475.12 310.13 475.12 305.19 484.2 307.66 484.62 314.29 475.12 310.13"/><path class="cls-2" d="M472.5,292.75s-2.24,6.84-1.44,6.84,4.06,5.6,4.06,5.6l9.08,2.47,1.12-11.92-1.92-9.93-1.29,8.81-3.36,5.72-3.63-2.2Z"/><polygon class="cls-3" points="473.62 272.99 472.5 292.75 475.12 300.34 478.1 302.31 485.32 295.74 484.62 272.99 473.62 272.99"/><path class="cls-3" d="M393.48,300.34l2.37,33.84-5.34,24.05,3,36.22,1.51-.23s-.39,5.14,0,5.14h7.5l.79-6.4,5.93-47.2,3.27-4.45Z"/><polygon class="cls-2" points="389.2 409.56 394.99 399.36 402.49 399.36 403.27 411.71 399.04 412.78 397.25 419.49 390.51 416.94 389.2 409.56"/><path class="cls-2" d="M281.43,230.42h5.82l15.08,10.28s.76,2.86-3.09,5.65l-13.53-3.42Z"/><path class="cls-4" d="M341.21,226.83l-6,24.88-32.88-11,34.42,13,5.73-26.89s1.85-7.49,2.48-9.06C345,217.77,341.89,224,341.21,226.83Z"/><path class="cls-4" d="M340.72,275.64a239.24,239.24,0,0,1-22.24-14.12l-19.24-15.17,42.37,27.47Z"/><path class="cls-4" d="M299.66,281.26,295,264.35l-.85-7.44-.53-.33.5,7.93s1.67,13.79,3.64,17.26C298,282.23,299.66,281.26,299.66,281.26Z"/><polygon class="cls-5" points="241.88 216.46 274.27 208.01 290.8 262.53 291.95 262.41 275.39 206.48 241.88 216.46"/><path class="cls-2" d="M552,273.06l17.32,16.48L598.94,270V256.87l10.61-3.07-5.3,5L616.9,255l4.1-1.23-3.35,2.79.07,1.4-1.19,1.6v.84l-.9,1.05.07,2.09-.84.56-.42,1.12-36.16,36.57s-5.3,9.22-15.91,0l-20.11-14Z"/><path class="cls-3" d="M558.86,340l-1.71-8.16-8.39.69h0l-26.32,1.12c-16.2,21.5-7.82,51.66-7.82,51.66L518,443.67l-31,58.07,1.11,2.52L477.2,516l2.52,3.36,14.39,16.91H505L499.06,533l-2.87-3.89v-13.4l51.94-65.34h0l9-60-3.58-27.23Z"/><path class="cls-3" d="M192.88,383.54,195,351.4l-3.19-9.3L195,329.34l-3.19-5.47,1.59,6.38-5.14,11.63-2,14.66-5.48-3.06s-3.31-1-6.54,2.27c0,0-10.68,11.64-2.12,21.42Z"/><path class="cls-2" d="M212.84,291.46c-1.9-.92-2.32-2.84-2.75-4.08-1.68-.09-3.22-.39-4.29-1.9-2-2.74-.41-5.11-.53-5.46,0,0-4.65-.91-7,3.07a15.14,15.14,0,0,0-.79,3.59l.4,1.86-1.2,2.37s.25,1.65.79,3.88c.85,3.58,2.41,8.66,4.78,10.87h2.53l.88,1.21,1.25,1.71s6.95,2.76,9.55-5.58l.7-8.15.34-3.94A5.09,5.09,0,0,1,212.84,291.46Z"/><path class="cls-3" d="M241.81,312.38s-9.22.2-8.52,15.55l4.24,44.26L237,389l-1.56-17-3.63-42.16S230.09,314.14,241.81,312.38Z"/><path class="cls-3" d="M169.46,364.47s1.78-6.33,6.15-9.84l-3.8-2.21s-6.13,3-5.35,9Z"/><polygon class="cls-3" points="244.63 409.25 244.17 413.06 250.4 412.69 250.76 409.25 251.78 407.88 244.63 409.25"/><polygon class="cls-2" points="209.55 313.53 220.78 301.37 224.49 303.31 209.55 317.32 202.85 307.81 204.5 305.93 209.55 313.53"/><polygon class="cls-6" points="205.71 306.07 209.55 313.53 204.5 305.93 205.71 306.07"/><path class="cls-3" d="M216.74,299.25l-1.6,1.38L214,297.85l-.83,4.61c-.71,1.58-11,3.2-11,3.2l3.5.41,3.84,7.46,7.51-8.12,3.72-4Z"/><path class="cls-1" d="M217.72,290.64c-2.12,0-3.86,2.51-3.86,5.61s1.74,5.61,3.86,5.61,3.86-2.52,3.86-5.61S219.85,290.64,217.72,290.64Zm0,10.9c-1.95,0-3.53-2.37-3.53-5.29s1.58-5.29,3.53-5.29,3.54,2.37,3.54,5.29S219.68,301.54,217.72,301.54Z"/><path class="cls-3" d="M233.38,274.92c.16-2.09,1.39-3.16.09-5.38a4.66,4.66,0,0,0-2.71-2.13,6.14,6.14,0,0,0-2.61-4.84,4.76,4.76,0,0,0-1.71-4.06,5.26,5.26,0,0,0-5.2-1,.7.7,0,0,0-.1-.08,5,5,0,0,0-1.75-.84,4.67,4.67,0,0,0-3.85-1.34c-3-2.75-6.63-4.81-10.35-2.8a6.64,6.64,0,0,0-6.87,1.63,3,3,0,0,0-.54.6c-3.81-1.53-7.82-1.91-10.52,2.06-.75,1.1-.23,1-.83,1.47-1.11.95-1.81.77-2.76,2.11a7.5,7.5,0,0,0-1.2,4.62c-3.9,1.28-5.41,7-3.09,10a7.17,7.17,0,0,0-.17,6.46,6.18,6.18,0,0,0,2.16,10.21,3.7,3.7,0,0,0,2.87,2.91,11.62,11.62,0,0,0,5.16-.12c2.12,1.5,6.07,1.33,7.92.42l.11-.06c-.54-2.23-.79-3.88-.79-3.88l1.2-2.37-.4-1.86a15.14,15.14,0,0,1,.79-3.59c2.39-4,7-3.07,7-3.07.12.35-1.42,2.72.53,5.46,1.07,1.51,2.61,1.81,4.29,1.9.43,1.24.85,3.16,2.75,4.08a5.09,5.09,0,0,0,4.62-.55l-.34,3.94a15.25,15.25,0,0,0,2.06.09c2.41,0,3.7-2.55,5.53-3.74,1.56-1,3.45-1,4.89-2.5a6.25,6.25,0,0,0,1.84-4.37,5.14,5.14,0,0,0,2.19-2.38C234.86,279.28,233.18,277.49,233.38,274.92Z"/><polygon class="cls-3" points="174.47 522.58 166.24 536.09 191 535.93 188.54 522.58 174.47 522.58"/><path class="cls-3" d="M315.26,147.38s3.3-4.67,8.43-2.89c0,0,7.64,2.19,8.59,7.64,0,0,3.14,3.45,3.35,5.86l.52,4.61V165s.1-6.49,3.56-5.34c0,0,4.5,1.25,2.3,6.49,0,0-.83,2.93-2.51,3.87l-2.34,6.53s10.33-5.37,10.74-17.41v-5.26s7.9.16,6-10.8c0,0-2.26-6.91-8.62-6,0,0-4.21,0-6.1,3C339.22,140.11,323.52,133.68,315.26,147.38Z"/><path class="cls-3" d="M339.12,202l-6.25,1.57s-1.71.91-5.83-.76l-7.52-1.73c.18,0,2.45-.1,3.73-4.75,2-5.34,2.87-13.26,2.87-13.26h-8.33s17.27-3.73,19.37-6.49l-7.54,25.37a2.86,2.86,0,0,0,3.7,0Z"/><path class="cls-3" d="M290.54,506.7l-10.18,4.46-.23,4.13s-8.57,14.66-19.23,20.8h27.37l2.12-16.19Z"/><polygon class="cls-3" points="371.44 505.66 373.04 536.09 394.7 536.09 382.12 518.01 380.64 501.31 371.44 505.66"/><path class="cls-1" d="M358.66,238.08s-.13.64-.37,1.74c-1.52,7.11-7.52,33.72-12.06,34.4a21.29,21.29,0,0,1-8.05-1.38,37.85,37.85,0,0,1-8.07-4l-30.87-22.44c3.65-2.79,3.09-5.65,3.09-5.65l34.43,13,6.68-31.35c5-17.44,12.68-17.62,13-17.62h0l.08,0a17.53,17.53,0,0,1,5,3.74l0,0C361.89,209.08,365.39,214.77,358.66,238.08Z"/><path class="cls-1" d="M356.19,204.62l-.12-.06Z"/><path class="cls-1" d="M356.38,204.72l-.19-.1Z"/><path class="cls-1" d="M356.44,204.75l-.06,0Z"/><path class="cls-1" d="M355,204Z"/><path class="cls-1" d="M355.36,204.21h0Z"/><path class="cls-3" d="M300.32,283.67l41.49-1.88s9.31,9.43,13.71,36,8,84.81,8,84.81L285,412.47S280.52,308.8,300.32,283.67Z"/><polygon class="cls-2" points="344.96 404.93 336.74 340 352.94 406.12 348.75 409.43 344.96 404.93"/><path class="cls-2" d="M569.49,374.62l-5-27.63,11.7,14.59,14.92,11.72s-10-2.42-11.17-3.91L584.7,380l.28,7.82-4.74-6.7-4.19.56Z"/><circle class="cls-1" cx="339.58" cy="169.54" r="1.1"/><path class="cls-2" d="M439.22,258.86l3.75-1.93-3-6.86,1.27-2.37L440,239.51a12.58,12.58,0,0,0-6.47-7.51h0l-.05,0a15.12,15.12,0,0,0-3.5-1.18,21,21,0,0,0-10.34.48l-.95.23a8,8,0,0,0-1.44.66c-7.25,2.6-9.16,8.27-9.16,13.53a31.31,31.31,0,0,0,2.39,11.25L420.12,268l.37,7.61,13.41.95v-5l3-.73,3.71-.91-.63-4.29,1.11-1.07-1.87-1.4,1.87-1.5Z"/><path class="cls-3" d="M440,239.51,430.74,243l-3.22,1.08,2.21,7.93-1.45,1.48.53,4.32-3.29-6s-5.61-1-4.22,4.72a4.18,4.18,0,0,0,3.54,3.54l-.86,4.51L420.12,268l-9.66-11.09s-8-16.88,4.62-23.84c0,0,10.37-6.56,20.26,0C435.34,233.1,439.89,235.5,440,239.51Z"/><path class="cls-2" d="M460.73,327.34l.95-.18.08-1.34-1.26.24-1.77-9.85,3.69-.7.09-1.34-4,.76-1.86-10.41,6.56-1.25.09-1.34-6.88,1.31-1.86-10.39,7-1.33,1.79,10,.34-5.44-.85-4.78,1.17-.22.06-.94h0l-.72-.26-.74.14-.08-.44-1.42-.51.22,1.19-7,1.34-.95-5.32-1.42-.51,1.09,6.07-8.12,1.56-1.81-10.11,1.3-.24-2.56-.93h-.28l0,.14-5.5,1-.21-1.19h-1.33l.26,1.43-8.12,1.55-.54-3h-1.32l.58,3.23L416.77,287l-.76-4.24-1.16.9.64,3.58-7,1.34-2.27,1.76.08,0,1.81,10.1-5.25,1-1.33-7.46-1.16.9,1.22,6.8-7.34,1.4.56,1.22,7-1.34,1.86,10.39-4.29.82.57,1.22,3.95-.76L405.79,325l-1.23.24.57,1.22.89-.18.61,3.42,2.16,4.65L407.3,326l5.24-1,1.77,9.85-4.84.92L410,337l4.51-.86,1.44,8-5.25,1-.27-1.52-1.06,1.45.05.31-.33.07-.3.4.39.9.47-.09.36,2L412.3,354,411,346.49l5.25-1,1.81,10.1-4.63.88.18.43-.21.9,4.89-.93,1.86,10.39-5.25,1-1.71-9.55-.75,3.21,1.18,6.59-2.84.54-.32,1.39,3.39-.65,1.87,10.41-7.88,1.5-.89,3.82,1.36,7.6-3.28.63-.32,1.39,3.83-.73,1.05,5.84h1.32l-1.09-6.09,8.12-1.55,1.28,7.12,1.31-.08-1.31-7.29,5.25-1,1.42,8,1.31-.08-1.46-8.12,8.13-1.55,1.64,9.15,11.46-.71,8.12-1.55.4,2.23,1.34.1-.46-2.57,5.5-1.05.73,4.08,1.34.11-.79-4.44,8.12-1.55.73,4.06a8.89,8.89,0,0,0,1.17-.84l-.62-3.47,2.17-.41-.34-1.26-2.06.39-1.67-9.3,1.26-.24-.34-1.26-1.15.22-1.76-9.85.3-.06-.34-1.26-.19,0-.4-2.27-4-14.68,1,5.5-8.13,1.55L455,349.84l7.71-1.47-.34-1.26-7.6,1.45L453,338.46l8.06-1.54.37-5.71Zm-1.51-1-8.13,1.56L449.33,318l8.12-1.55Zm-6.29,58.29-8.13,1.55L443,376.3l8.12-1.56Zm-.49-10.09,5.5-1.05,1.76,9.85-5.49,1.05Zm-9.63.51-1.87-10.4,8.13-1.56,1.86,10.41ZM419,299.63l8.65-1.65,1.86,10.39L420.9,310Zm.58,10.64-8.12,1.55-1.86-10.39,8.12-1.55Zm23.65,20.41,1.44,8-8.13,1.55-1.44-8Zm-8.36.27-1.76-9.85,8.12-1.55L443,329.4Zm7.64-11.65,5.5-1.05,1.77,9.85-5.5,1Zm-.23-1.28-1.86-10.41,5.5-1.05L447.82,317Zm-1.27.25-8.13,1.55-1.86-10.41,8.12-1.55Zm-10.22-10.14L429,297.74l8.12-1.55L439,306.58Zm-1.05,1.53,1.86,10.4L423,321.72l-1.87-10.41Zm2.09,11.69,1.77,9.84L425,332.84,423.23,323Zm2,11.12,1.44,8-8.65,1.65-1.44-8Zm1.66,9.32,1.81,10.11-8.64,1.65-1.81-10.1Zm2,11.39,1.87,10.39-8.65,1.65-1.86-10.39Zm-6,24-8.13,1.55-1.86-10.41,8.12-1.55ZM431,366.5l8.65-1.65,1.86,10.41-8.65,1.65Zm9.69-3.18-1.86-10.39,8.13-1.55,1.86,10.39Zm-2.09-11.67-1.81-10.1,8.13-1.55,1.81,10.1Zm5.93-21.22,5.5-1.05,1.44,8-5.5,1.05Zm12.68-15.25-8.13,1.55-1.86-10.41,8.12-1.55Zm-4-22.09,1.86,10.4L447,305l-1.86-10.39Zm-7.54,12.19-5.5,1.05-1.86-10.39,5.5-1.05Zm-3.9-21.77,1.81,10.1-5.5,1.05-1.81-10.1Zm-6.78,1.29,1.81,10.1-8.12,1.56-1.81-10.11Zm-9.4,1.8,1.81,10.1-8.65,1.65L417,288.25Zm-18,3.45,8.12-1.55,1.81,10.1-8.12,1.55Zm-4.49,12.63,5.25-1,1.86,10.39-5.24,1Zm4,22.08-1.86-10.41,5.24-1,1.87,10.41Zm4.66-11.66,8.12-1.55L421.72,322l-8.13,1.55Zm2.09,11.69,8.13-1.55,1.76,9.85-8.12,1.55Zm2,11.13,8.12-1.55,1.44,8L417.26,344Zm1.67,9.32,8.12-1.55,1.81,10.1-8.12,1.55Zm2,11.39,8.12-1.56,1.86,10.4L421.39,367Zm-4.44,12.92,5.25-1L422.2,379,417,380Zm-5.54,23.33L407.78,383l8.13-1.55,1.76,9.85Zm9.4-1.8-1.76-9.84,5.24-1,1.77,9.85Zm6.53-1.24L423.71,380l8.13-1.55,1.76,9.84Zm7.63-11.65,8.65-1.65,1.76,9.85L434.88,388Zm3.66,20.44-1.66-9.31,8.64-1.65,1.67,9.31Zm9.93-1.9-1.67-9.3,8.13-1.56,1.66,9.31Zm9.4-1.8-1.67-9.3,5.5-1.05,1.67,9.3Zm14.9-2.84-8.12,1.55-1.67-9.31,8.13-1.55Zm-1.89-10.59L461,383.05l-1.76-9.85,8.12-1.55ZM465.25,360l1.86,10.41L459,371.92l-1.87-10.41Zm-7.54,12.21-5.5,1.05-1.86-10.41,5.49-1.05Zm-2.09-11.69-5.5,1-1.86-10.39,5.49-1.05Zm-2.1-11.68L448,349.86l-1.81-10.11,5.49-1.05Zm-.76-11.62-1.44-8,8.13-1.55,1.44,8Z"/><polygon class="cls-1" points="573.36 204.86 573.36 208.56 572.78 208.44 572.78 204.74 564.15 203.64 564.15 203.59 557.13 204.29 557.18 204.77 563.71 204.12 564.34 211.42 572.78 212.33 572.78 208.93 573.36 209.05 573.36 212.54 578.83 213.46 579.46 206.34 573.36 204.86"/><path class="cls-1" d="M264.6,183.06h-1.08a53,53,0,0,1-32.86-11.27,53.59,53.59,0,0,1-43.15-23.37l-.86-1.26h.07a53,53,0,0,1-6-12.72h0l-.29-.91A53.55,53.55,0,0,1,229,64.82a50.45,50.45,0,0,1,5.5,0,53.47,53.47,0,0,1,50.78,53.46q0,1.18-.06,2.34l-.08,1a52.88,52.88,0,0,1-2.44,13l.08,0-.64,1.77a53.49,53.49,0,0,1-17.54,24.16ZM190.19,148.5a51.41,51.41,0,0,0,40.86,21.14h.37l.28.23a50.88,50.88,0,0,0,30.75,11V159.47l.42-.32a51.39,51.39,0,0,0,16.84-22.4l.36-1.1a50.88,50.88,0,0,0,3-15.13l.05-1.14h0c0-.36,0-.73,0-1.1A51.34,51.34,0,0,0,234.39,67h0a51.43,51.43,0,0,0-52.17,65h0l.29.91a50.72,50.72,0,0,0,6.78,14.25l.91,1.33Z"/><path class="cls-7" d="M152.24,303.89h-.44a21.46,21.46,0,0,1-13.31-4.56A21.7,21.7,0,0,1,121,289.86l-.34-.51h0a22,22,0,0,1-2.42-5.15h0l-.12-.37A21.71,21.71,0,0,1,137.82,256a20.74,20.74,0,0,1,2.23,0,21.66,21.66,0,0,1,20.57,21.65c0,.32,0,.64,0,1l0,.42a21.27,21.27,0,0,1-1,5.25h0l-.25.71a21.66,21.66,0,0,1-7.11,9.79Zm-30.14-14a20.84,20.84,0,0,0,16.55,8.57h.15l.11.09A20.56,20.56,0,0,0,151.37,303v-8.68l.17-.13a20.87,20.87,0,0,0,6.82-9.07l.15-.45a20.71,20.71,0,0,0,1.2-6.13l0-.46h0c0-.15,0-.3,0-.45A20.8,20.8,0,0,0,140,256.87h0a19.1,19.1,0,0,0-2.14,0,20.83,20.83,0,0,0-19,26.34h0l.11.37a20.69,20.69,0,0,0,2.75,5.77l.37.54Z"/><path class="cls-7" d="M468.77,220.42a27,27,0,0,1-8.85-12.18l-.32-.89h0a26.82,26.82,0,0,1-1.24-6.54l0-.51c0-.39,0-.78,0-1.18a27,27,0,0,1,25.59-26.94,25.78,25.78,0,0,1,2.78,0,27,27,0,0,1,24.47,34.62l-.15.46h0a26.42,26.42,0,0,1-3,6.41h0l-.43.64a27,27,0,0,1-21.74,11.77,26.67,26.67,0,0,1-16.56,5.68h-.54Zm37.48-6.07.46-.67a25.33,25.33,0,0,0,3.41-7.18l.15-.46h0a25.49,25.49,0,0,0,.94-6.91,25.87,25.87,0,0,0-24.56-25.86c-.88,0-1.78,0-2.66,0h0a25.86,25.86,0,0,0-24.56,25.86v.56h0l0,.58a25.52,25.52,0,0,0,1.5,7.62l.18.56a25.87,25.87,0,0,0,8.49,11.28l.21.17v10.79a25.6,25.6,0,0,0,15.49-5.55l.15-.12h.18a25.92,25.92,0,0,0,20.59-10.65Z"/><path class="cls-7" d="M618.64,158.87a63.65,63.65,0,0,1-20.88-28.76L597,128l.1,0a63.25,63.25,0,0,1-2.91-15.44l-.1-1.21Q594,110,594,108.59A63.64,63.64,0,0,1,654.45,45,65,65,0,0,1,661,45a63.73,63.73,0,0,1,57.79,81.76l-.34,1.08h0a62.79,62.79,0,0,1-7.11,15.13l.08,0-1,1.49A63.77,63.77,0,0,1,659,172.26a63,63,0,0,1-39.1,13.41h-1.28Zm88.51-14.33,1.08-1.59a60.24,60.24,0,0,0,8.07-17l.34-1.08h0a61.17,61.17,0,0,0-55.79-77.38,60,60,0,0,0-6.29,0h0a61.07,61.07,0,0,0-58,61.06c0,.44,0,.88,0,1.31h0l.06,1.36a60.32,60.32,0,0,0,3.55,18l.43,1.31a61,61,0,0,0,20,26.65l.51.39V183.1A60.44,60.44,0,0,0,657.78,170l.34-.27h.43a61.24,61.24,0,0,0,48.63-25.17Z"/><path class="cls-1" d="M169.88,353.71,174,357s3.27-3.74,10.49,1.45l3.7,1.74a9.61,9.61,0,0,1,4.61,5.63s-1-8.31-4.36-9.16l2.43-22-2.35,4.41-2.18,17.43s-6-6-10.7-1.91l-3.8-2.21Z"/></g></svg>